<svg width="236" height="32" viewBox="0 0 236 32" fill="none" xmlns="http://www.w3.org/2000/svg">
<g clip-path="url(#clip0_201_158)">
<path d="M65.5348 0.751221H38.471C36.3719 0.751221 35.0181 2.95123 35.9993 4.77234L38.707 9.82013H33.8009C32.8073 9.82013 32 10.6146 32 11.5924C32 11.8857 32.0745 12.1668 32.2111 12.4235L40.9178 28.6424C41.3898 29.5102 42.4827 29.8402 43.3522 29.3757C43.6751 29.2046 43.9359 28.9479 44.0974 28.6424L46.4572 24.2668L49.4257 29.7913C50.469 31.7346 53.3008 31.7346 54.3441 29.7913L67.9319 4.67456C68.8883 2.89011 67.5718 0.751221 65.5348 0.751221ZM53.3753 11.4824L47.5254 22.3235C47.2149 22.8979 46.4821 23.1179 45.8983 22.8124C45.6872 22.7024 45.5133 22.5313 45.4015 22.3235L39.6136 11.5312C39.3031 10.9568 39.5267 10.2357 40.1105 9.93013C40.2843 9.84457 40.4706 9.79568 40.6694 9.79568H52.3445C52.9903 9.79568 53.512 10.309 53.512 10.9446C53.512 11.1279 53.4623 11.3235 53.3753 11.4824ZM94.3251 12.4112H91.3691V22.3968C91.3691 22.5802 91.2076 22.739 91.0213 22.739H88.7359C88.5496 22.739 88.3882 22.5802 88.3882 22.3968V12.4112H85.4073C85.221 12.4235 85.072 12.2768 85.0595 12.0935V12.0812V10.309C85.0595 10.1257 85.2086 9.97902 85.3949 9.97902H85.4073H94.3251C94.5114 9.96679 94.6853 10.1135 94.6853 10.309V12.0812C94.6729 12.2646 94.5114 12.4112 94.3251 12.4112ZM103.827 22.6657C103.218 22.7513 102.187 22.8857 100.312 22.8857C98.0636 22.8857 96.0764 22.3235 96.0764 19.1946V13.499C96.0764 10.3824 98.076 9.83235 100.324 9.83235C102.2 9.83235 103.218 9.96679 103.827 10.0524C104.075 10.089 104.174 10.1746 104.174 10.3946V11.9957C104.174 12.179 104.013 12.3379 103.827 12.3379H100.15C99.3305 12.3379 99.0324 12.6068 99.0324 13.499V15.0635H103.678C103.864 15.0635 104.025 15.2224 104.025 15.4057V17.0313C104.025 17.2146 103.864 17.3735 103.678 17.3735H99.0324V19.1946C99.0324 20.0868 99.3305 20.3557 100.15 20.3557H103.827C104.013 20.3557 104.174 20.5146 104.174 20.6979V22.299C104.174 22.519 104.075 22.629 103.827 22.6657ZM116.98 22.7268H114.21C113.986 22.7268 113.875 22.6535 113.763 22.4702L111.353 18.7179L109.18 22.3846C109.056 22.5924 108.931 22.7268 108.745 22.7268H106.162C105.988 22.7268 105.901 22.629 105.901 22.5068C105.901 22.4702 105.913 22.4213 105.938 22.3846L109.714 16.1879L105.901 10.309C105.876 10.2724 105.864 10.2479 105.864 10.2112C105.876 10.0768 105.988 9.97902 106.124 9.99124H108.931C109.118 9.99124 109.267 10.1624 109.366 10.3212L111.602 13.7801L113.763 10.3212C113.85 10.1624 114.011 9.99124 114.198 9.99124H116.781C116.918 9.99124 117.029 10.089 117.042 10.2112C117.042 10.2479 117.029 10.2846 117.005 10.309L113.204 16.2246L117.166 22.3846C117.191 22.4335 117.216 22.4946 117.216 22.5557C117.203 22.6657 117.116 22.7268 116.98 22.7268ZM83.3455 10.0157C83.3704 10.0157 83.3828 10.0157 83.4076 10.0279C83.5567 10.0646 83.6436 10.199 83.6064 10.3457C83.6064 10.3457 80.5882 20.8813 80.5385 21.0157C80.1287 22.2379 79.0605 22.8735 77.8558 22.8735C76.5765 22.8735 75.5828 22.2746 75.173 21.0157C75.1357 20.9057 72.0431 10.3457 72.0431 10.3457C72.0431 10.3212 72.0306 10.309 72.0306 10.2846C72.0306 10.1379 72.1548 10.0157 72.3039 10.0157H74.8004C74.9246 10.0157 75.0364 10.1012 75.0612 10.2235L77.5949 19.439C77.6322 19.6224 77.6819 19.6957 77.8433 19.6957C78.0048 19.6957 78.0545 19.6224 78.0918 19.439L80.6255 10.2235C80.6503 10.1012 80.7621 10.0157 80.8863 10.0157H83.3455Z" fill="#E31C58"/>
</g>
<path d="M130.709 0.751221H129.216V31.2488H130.709V0.751221Z" fill="#E31C58"/>
<path d="M146.507 21.5L143.609 9.26H145.571L147.947 20.654H147.551L150.413 9.26H152.267L155.381 20.582H154.895L157.217 9.26H159.125L156.227 21.5H153.923L151.151 11.204H151.511L148.865 21.5H146.507ZM160.58 21.5V12.608H162.128V15.182H162.182C162.35 14.45 162.554 13.886 162.794 13.49C163.034 13.094 163.316 12.818 163.64 12.662C163.976 12.506 164.36 12.428 164.792 12.428C164.936 12.428 165.092 12.44 165.26 12.464C165.44 12.476 165.59 12.494 165.71 12.518L165.8 14.174C165.68 14.15 165.524 14.132 165.332 14.12C165.14 14.096 164.96 14.084 164.792 14.084C164.252 14.084 163.79 14.192 163.406 14.408C163.022 14.612 162.728 14.918 162.524 15.326C162.332 15.722 162.236 16.208 162.236 16.784V21.5H160.58ZM167.369 21.5V12.608H169.007V21.5H167.369ZM168.215 11.24C167.855 11.24 167.573 11.144 167.369 10.952C167.177 10.748 167.081 10.484 167.081 10.16C167.081 9.824 167.177 9.56 167.369 9.368C167.573 9.164 167.855 9.062 168.215 9.062C168.563 9.062 168.833 9.164 169.025 9.368C169.217 9.56 169.313 9.824 169.313 10.16C169.313 10.484 169.217 10.748 169.025 10.952C168.833 11.144 168.563 11.24 168.215 11.24ZM174.749 21.68C174.269 21.68 173.849 21.614 173.489 21.482C173.141 21.35 172.871 21.128 172.679 20.816C172.487 20.492 172.391 20.054 172.391 19.502V13.652L173.687 12.608H176.549V13.994H170.897V12.986C171.233 12.89 171.521 12.77 171.761 12.626C172.001 12.482 172.199 12.302 172.355 12.086C172.523 11.858 172.655 11.588 172.751 11.276C172.847 10.952 172.913 10.574 172.949 10.142H174.047V19.142C174.047 19.574 174.143 19.868 174.335 20.024C174.527 20.168 174.809 20.24 175.181 20.24C175.469 20.24 175.739 20.216 175.991 20.168C176.255 20.108 176.477 20.054 176.657 20.006L176.441 21.464C176.213 21.524 175.949 21.572 175.649 21.608C175.361 21.656 175.061 21.68 174.749 21.68ZM178.742 21.5V12.608H180.38V21.5H178.742ZM179.588 11.24C179.228 11.24 178.946 11.144 178.742 10.952C178.55 10.748 178.454 10.484 178.454 10.16C178.454 9.824 178.55 9.56 178.742 9.368C178.946 9.164 179.228 9.062 179.588 9.062C179.936 9.062 180.206 9.164 180.398 9.368C180.59 9.56 180.686 9.824 180.686 10.16C180.686 10.484 180.59 10.748 180.398 10.952C180.206 11.144 179.936 11.24 179.588 11.24ZM183.098 21.5V12.608H184.664V14.858H184.718C184.838 14.306 185.024 13.85 185.276 13.49C185.528 13.13 185.846 12.86 186.23 12.68C186.614 12.5 187.052 12.41 187.544 12.41C188.036 12.41 188.474 12.482 188.858 12.626C189.242 12.77 189.566 12.992 189.83 13.292C190.094 13.58 190.292 13.952 190.424 14.408C190.568 14.852 190.64 15.38 190.64 15.992V21.5H188.984V16.082C188.984 15.626 188.906 15.236 188.75 14.912C188.606 14.576 188.384 14.324 188.084 14.156C187.784 13.976 187.406 13.886 186.95 13.886C186.218 13.886 185.666 14.084 185.294 14.48C184.934 14.864 184.754 15.398 184.754 16.082V21.5H183.098ZM196.415 25.01C195.719 25.01 195.107 24.968 194.579 24.884C194.051 24.8 193.607 24.668 193.247 24.488C192.887 24.32 192.617 24.104 192.437 23.84C192.257 23.576 192.167 23.264 192.167 22.904C192.167 22.532 192.269 22.214 192.473 21.95C192.677 21.698 192.989 21.494 193.409 21.338C193.841 21.182 194.399 21.086 195.083 21.05L195.119 21.158C194.855 21.194 194.627 21.266 194.435 21.374C194.243 21.47 194.093 21.59 193.985 21.734C193.889 21.89 193.841 22.07 193.841 22.274C193.841 22.574 193.943 22.82 194.147 23.012C194.363 23.216 194.669 23.366 195.065 23.462C195.461 23.558 195.935 23.606 196.487 23.606C197.363 23.606 198.077 23.48 198.629 23.228C199.193 22.988 199.475 22.628 199.475 22.148C199.475 21.8 199.343 21.542 199.079 21.374C198.815 21.206 198.377 21.116 197.765 21.104C197.573 21.104 197.369 21.11 197.153 21.122C196.937 21.122 196.715 21.128 196.487 21.14C196.259 21.14 196.037 21.146 195.821 21.158C195.605 21.158 195.401 21.158 195.209 21.158C194.945 21.158 194.699 21.146 194.471 21.122C194.255 21.086 194.063 21.038 193.895 20.978C193.595 20.87 193.361 20.714 193.193 20.51C193.025 20.306 192.941 20.048 192.941 19.736C192.941 19.436 193.031 19.178 193.211 18.962C193.403 18.746 193.679 18.578 194.039 18.458C194.399 18.338 194.849 18.278 195.389 18.278L195.407 18.368C195.167 18.392 194.975 18.446 194.831 18.53C194.699 18.602 194.603 18.692 194.543 18.8C194.483 18.908 194.453 19.022 194.453 19.142C194.453 19.322 194.519 19.46 194.651 19.556C194.783 19.652 194.999 19.706 195.299 19.718C195.443 19.718 195.623 19.718 195.839 19.718C196.067 19.706 196.307 19.694 196.559 19.682C196.823 19.67 197.081 19.664 197.333 19.664C197.585 19.652 197.819 19.646 198.035 19.646C198.743 19.646 199.325 19.73 199.781 19.898C200.249 20.054 200.597 20.3 200.825 20.636C201.065 20.972 201.185 21.404 201.185 21.932C201.185 22.616 200.981 23.186 200.573 23.642C200.165 24.098 199.601 24.44 198.881 24.668C198.161 24.896 197.339 25.01 196.415 25.01ZM196.397 17.162C197.021 17.162 197.483 17.024 197.783 16.748C198.083 16.46 198.233 16.058 198.233 15.542C198.233 15.194 198.167 14.9 198.035 14.66C197.903 14.42 197.699 14.24 197.423 14.12C197.159 13.988 196.817 13.922 196.397 13.922C195.773 13.922 195.299 14.066 194.975 14.354C194.651 14.63 194.489 15.026 194.489 15.542C194.489 15.878 194.561 16.172 194.705 16.424C194.849 16.664 195.059 16.85 195.335 16.982C195.623 17.102 195.977 17.162 196.397 17.162ZM196.451 18.458C195.767 18.458 195.143 18.356 194.579 18.152C194.027 17.936 193.589 17.612 193.265 17.18C192.941 16.748 192.779 16.196 192.779 15.524C192.779 15.008 192.917 14.534 193.193 14.102C193.469 13.658 193.919 13.298 194.543 13.022C195.167 12.746 195.989 12.608 197.009 12.608H200.771V14.084H200.375C200.147 13.82 199.835 13.628 199.439 13.508C199.055 13.376 198.437 13.31 197.585 13.31L197.567 13.346C198.179 13.478 198.653 13.664 198.989 13.904C199.337 14.132 199.577 14.396 199.709 14.696C199.853 14.984 199.925 15.284 199.925 15.596C199.925 16.184 199.775 16.694 199.475 17.126C199.175 17.558 198.761 17.888 198.233 18.116C197.717 18.344 197.123 18.458 196.451 18.458Z" fill="#E31C58"/>
<defs>
<clipPath id="clip0_201_158">
<rect width="85.2157" height="30.4976" fill="white" transform="translate(32 0.751221)"/>
</clipPath>
</defs>
</svg>
